<mxfile host="app.diagrams.net" modified="2020-06-26T14:08:13.868Z" agent="5.0 (Macintosh; Intel Mac OS X 10_15_5) AppleWebKit/537.36 (KHTML, like Gecko) Chrome/83.0.4103.97 Safari/537.36" etag="-hA2axqiZslHbNqjQUgy" version="13.3.5" type="github">
  <diagram id="z9IjnxbGLv4WJxgL45KA" name="Page-1">
    <mxGraphModel dx="1113" dy="624" grid="1" gridSize="10" guides="1" tooltips="1" connect="1" arrows="1" fold="1" page="1" pageScale="1" pageWidth="827" pageHeight="1169" math="0" shadow="0">
      <root>
        <mxCell id="0" />
        <mxCell id="1" parent="0" />
        <mxCell id="YTkOEfqqr1IpD95FYDRK-1" value="MANAGER" style="shape=umlActor;verticalLabelPosition=bottom;labelBackgroundColor=#ffffff;verticalAlign=top;html=1;outlineConnect=0;fillColor=#fff2cc;strokeColor=#d6b656;" vertex="1" parent="1">
          <mxGeometry x="80" y="50" width="30" height="60" as="geometry" />
        </mxCell>
        <mxCell id="YTkOEfqqr1IpD95FYDRK-2" value="CLIENT" style="shape=umlActor;verticalLabelPosition=bottom;labelBackgroundColor=#ffffff;verticalAlign=top;html=1;outlineConnect=0;fillColor=#dae8fc;strokeColor=#6c8ebf;" vertex="1" parent="1">
          <mxGeometry x="30" y="150" width="30" height="60" as="geometry" />
        </mxCell>
        <mxCell id="YTkOEfqqr1IpD95FYDRK-3" value="HÔTE DE CAISSE" style="shape=umlActor;verticalLabelPosition=bottom;labelBackgroundColor=#ffffff;verticalAlign=top;html=1;outlineConnect=0;fillColor=#e1d5e7;strokeColor=#9673a6;" vertex="1" parent="1">
          <mxGeometry x="120" y="150" width="30" height="60" as="geometry" />
        </mxCell>
        <mxCell id="YTkOEfqqr1IpD95FYDRK-5" value="" style="rounded=0;whiteSpace=wrap;html=1;fillColor=#f5f5f5;strokeColor=#666666;fontColor=#333333;" vertex="1" parent="1">
          <mxGeometry x="90" y="260" width="10" height="600" as="geometry" />
        </mxCell>
        <mxCell id="YTkOEfqqr1IpD95FYDRK-6" value="" style="rounded=0;whiteSpace=wrap;html=1;fillColor=#f5f5f5;strokeColor=#666666;fontColor=#333333;" vertex="1" parent="1">
          <mxGeometry x="330" y="260" width="10" height="600" as="geometry" />
        </mxCell>
        <mxCell id="YTkOEfqqr1IpD95FYDRK-7" value="" style="shape=datastore;whiteSpace=wrap;html=1;aspect=fixed;fillColor=#bac8d3;strokeColor=#23445d;" vertex="1" parent="1">
          <mxGeometry x="290" y="70" width="110" height="110" as="geometry" />
        </mxCell>
        <mxCell id="YTkOEfqqr1IpD95FYDRK-8" value="SERVEUR&lt;br&gt;BASE DE DONNÉES" style="text;html=1;strokeColor=none;fillColor=none;align=center;verticalAlign=middle;whiteSpace=wrap;rounded=0;" vertex="1" parent="1">
          <mxGeometry x="280" y="190" width="140" height="20" as="geometry" />
        </mxCell>
        <mxCell id="YTkOEfqqr1IpD95FYDRK-9" value="" style="rounded=0;whiteSpace=wrap;html=1;fillColor=#f5f5f5;strokeColor=#666666;fontColor=#333333;" vertex="1" parent="1">
          <mxGeometry x="570" y="260" width="10" height="600" as="geometry" />
        </mxCell>
        <mxCell id="YTkOEfqqr1IpD95FYDRK-10" value="&lt;font style=&quot;font-size: 12px&quot; color=&quot;#000000&quot;&gt;SYSTÈME BANCAIRE&lt;/font&gt;" style="shape=umlActor;verticalLabelPosition=bottom;labelBackgroundColor=#ffffff;verticalAlign=top;html=1;outlineConnect=0;fillColor=#e51400;strokeColor=#B20000;fontColor=#ffffff;" vertex="1" parent="1">
          <mxGeometry x="560" y="110" width="30" height="60" as="geometry" />
        </mxCell>
        <mxCell id="YTkOEfqqr1IpD95FYDRK-17" value="" style="rounded=0;whiteSpace=wrap;html=1;fillColor=#f5f5f5;strokeColor=#666666;fontColor=#333333;" vertex="1" parent="1">
          <mxGeometry x="810" y="260" width="10" height="600" as="geometry" />
        </mxCell>
        <mxCell id="YTkOEfqqr1IpD95FYDRK-18" value="&lt;font style=&quot;font-size: 12px&quot; color=&quot;#000000&quot;&gt;PIZZAIOLO&lt;/font&gt;" style="shape=umlActor;verticalLabelPosition=bottom;labelBackgroundColor=#ffffff;verticalAlign=top;html=1;outlineConnect=0;fillColor=#ffe6cc;strokeColor=#d79b00;" vertex="1" parent="1">
          <mxGeometry x="800" y="110" width="30" height="60" as="geometry" />
        </mxCell>
        <mxCell id="YTkOEfqqr1IpD95FYDRK-19" value="&lt;font style=&quot;font-size: 12px&quot; color=&quot;#000000&quot;&gt;LIVREUR&lt;/font&gt;" style="shape=umlActor;verticalLabelPosition=bottom;labelBackgroundColor=#ffffff;verticalAlign=top;html=1;outlineConnect=0;fillColor=#d5e8d4;strokeColor=#82b366;" vertex="1" parent="1">
          <mxGeometry x="1050" y="110" width="30" height="60" as="geometry" />
        </mxCell>
        <mxCell id="YTkOEfqqr1IpD95FYDRK-20" value="" style="rounded=0;whiteSpace=wrap;html=1;fillColor=#f5f5f5;strokeColor=#666666;fontColor=#333333;" vertex="1" parent="1">
          <mxGeometry x="1060" y="260" width="10" height="600" as="geometry" />
        </mxCell>
        <mxCell id="YTkOEfqqr1IpD95FYDRK-21" value="" style="endArrow=classic;html=1;exitX=0.994;exitY=0.033;exitDx=0;exitDy=0;exitPerimeter=0;entryX=-0.065;entryY=0.033;entryDx=0;entryDy=0;entryPerimeter=0;" edge="1" parent="1" source="YTkOEfqqr1IpD95FYDRK-5" target="YTkOEfqqr1IpD95FYDRK-6">
          <mxGeometry width="50" height="50" relative="1" as="geometry">
            <mxPoint x="430" y="360" as="sourcePoint" />
            <mxPoint x="480" y="310" as="targetPoint" />
          </mxGeometry>
        </mxCell>
        <mxCell id="YTkOEfqqr1IpD95FYDRK-22" value="S&#39;AUTHENTIFIER" style="edgeLabel;html=1;align=center;verticalAlign=middle;resizable=0;points=[];" vertex="1" connectable="0" parent="YTkOEfqqr1IpD95FYDRK-21">
          <mxGeometry x="-0.1077" y="1" relative="1" as="geometry">
            <mxPoint as="offset" />
          </mxGeometry>
        </mxCell>
        <mxCell id="YTkOEfqqr1IpD95FYDRK-23" value="" style="endArrow=classic;html=1;entryX=1.112;entryY=0.095;entryDx=0;entryDy=0;entryPerimeter=0;" edge="1" parent="1" target="YTkOEfqqr1IpD95FYDRK-5">
          <mxGeometry width="50" height="50" relative="1" as="geometry">
            <mxPoint x="330" y="317" as="sourcePoint" />
            <mxPoint x="480" y="310" as="targetPoint" />
          </mxGeometry>
        </mxCell>
        <mxCell id="YTkOEfqqr1IpD95FYDRK-24" value="AUTHENTIFICATION RÉUSSIE" style="edgeLabel;html=1;align=center;verticalAlign=middle;resizable=0;points=[];" vertex="1" connectable="0" parent="YTkOEfqqr1IpD95FYDRK-23">
          <mxGeometry x="0.0028" y="-1" relative="1" as="geometry">
            <mxPoint x="1" as="offset" />
          </mxGeometry>
        </mxCell>
        <mxCell id="YTkOEfqqr1IpD95FYDRK-26" value="" style="endArrow=classic;html=1;entryX=0.876;entryY=0.097;entryDx=0;entryDy=0;entryPerimeter=0;" edge="1" parent="1" target="YTkOEfqqr1IpD95FYDRK-6">
          <mxGeometry width="50" height="50" relative="1" as="geometry">
            <mxPoint x="360" y="310" as="sourcePoint" />
            <mxPoint x="400" y="310" as="targetPoint" />
          </mxGeometry>
        </mxCell>
        <mxCell id="YTkOEfqqr1IpD95FYDRK-27" value="" style="endArrow=classic;html=1;exitX=1.112;exitY=0.033;exitDx=0;exitDy=0;exitPerimeter=0;" edge="1" parent="1" source="YTkOEfqqr1IpD95FYDRK-6">
          <mxGeometry width="50" height="50" relative="1" as="geometry">
            <mxPoint x="350" y="360" as="sourcePoint" />
            <mxPoint x="360" y="290" as="targetPoint" />
          </mxGeometry>
        </mxCell>
        <mxCell id="YTkOEfqqr1IpD95FYDRK-28" value="Vérification" style="text;html=1;strokeColor=none;fillColor=none;align=center;verticalAlign=middle;whiteSpace=wrap;rounded=0;" vertex="1" parent="1">
          <mxGeometry x="360" y="290" width="40" height="20" as="geometry" />
        </mxCell>
        <mxCell id="YTkOEfqqr1IpD95FYDRK-29" value="" style="endArrow=classic;html=1;entryX=-0.065;entryY=0.233;entryDx=0;entryDy=0;entryPerimeter=0;" edge="1" parent="1" target="YTkOEfqqr1IpD95FYDRK-6">
          <mxGeometry width="50" height="50" relative="1" as="geometry">
            <mxPoint x="100" y="400" as="sourcePoint" />
            <mxPoint x="150" y="350" as="targetPoint" />
          </mxGeometry>
        </mxCell>
        <mxCell id="YTkOEfqqr1IpD95FYDRK-32" value="PASSE UNE COMMANDE" style="edgeLabel;html=1;align=center;verticalAlign=middle;resizable=0;points=[];" vertex="1" connectable="0" parent="YTkOEfqqr1IpD95FYDRK-29">
          <mxGeometry x="-0.1182" y="5" relative="1" as="geometry">
            <mxPoint as="offset" />
          </mxGeometry>
        </mxCell>
        <mxCell id="YTkOEfqqr1IpD95FYDRK-33" value="" style="endArrow=classic;html=1;" edge="1" parent="1">
          <mxGeometry width="50" height="50" relative="1" as="geometry">
            <mxPoint x="101" y="440" as="sourcePoint" />
            <mxPoint x="568" y="440" as="targetPoint" />
          </mxGeometry>
        </mxCell>
        <mxCell id="YTkOEfqqr1IpD95FYDRK-34" value="INFORMATION PAIEMENT" style="edgeLabel;html=1;align=center;verticalAlign=middle;resizable=0;points=[];" vertex="1" connectable="0" parent="YTkOEfqqr1IpD95FYDRK-33">
          <mxGeometry x="0.2246" relative="1" as="geometry">
            <mxPoint as="offset" />
          </mxGeometry>
        </mxCell>
      </root>
    </mxGraphModel>
  </diagram>
</mxfile>
